HIERARCHY
ROOT Hips
{
 OFFSET 0.000000 0.000000 0.000000
 CHANNELS 6 Xposition Yposition Zposition Yrotation Xrotation Zrotation
 JOINT Chest
 {
  OFFSET 0.000000 9.585900 0.002600
  CHANNELS 3 Yrotation Xrotation Zrotation
  JOINT Chest2
  {
   OFFSET 0.000000 9.601200 -0.005300
   CHANNELS 3 Yrotation Xrotation Zrotation
   JOINT Chest3
   {
    OFFSET 0.000000 9.561800 0.000000
    CHANNELS 3 Yrotation Xrotation Zrotation
    JOINT Chest4
    {
     OFFSET 0.000000 9.552100 0.000000
     CHANNELS 3 Yrotation Xrotation Zrotation
     JOINT Neck
     {
      OFFSET 0.000000 14.453000 0.000000
      CHANNELS 3 Yrotation Xrotation Zrotation
      JOINT Head
      {
       OFFSET 0.000000 8.936500 -0.011300
       CHANNELS 3 Yrotation Xrotation Zrotation
       End Site
       {
        OFFSET 0.000000 17.073600 -0.006000
       }
      }
     }
     JOINT RightCollar
     {
      OFFSET -2.921100 9.558500 0.000000
      CHANNELS 3 Yrotation Xrotation Zrotation
      JOINT RightShoulder
      {
       OFFSET -13.519700 0.000000 0.000000
       CHANNELS 3 Yrotation Xrotation Zrotation
       JOINT RightElbow
       {
        OFFSET 0.000000 -29.696600 0.000000
        CHANNELS 3 Yrotation Xrotation Zrotation
        JOINT RightWrist
        {
         OFFSET 0.000000 -24.004700 0.000000
         CHANNELS 3 Yrotation Xrotation Zrotation
         End Site
         {
          OFFSET 0.000000 -17.728500 0.000000
         }
        }
       }
      }
     }
     JOINT LeftCollar
     {
      OFFSET 2.921100 9.558500 0.000000
      CHANNELS 3 Yrotation Xrotation Zrotation
      JOINT LeftShoulder
      {
       OFFSET 13.519700 0.000000 0.000000
       CHANNELS 3 Yrotation Xrotation Zrotation
       JOINT LeftElbow
       {
        OFFSET 0.000000 -29.696600 0.000000
        CHANNELS 3 Yrotation Xrotation Zrotation
        JOINT LeftWrist
        {
         OFFSET 0.000000 -24.004700 0.000000
         CHANNELS 3 Yrotation Xrotation Zrotation
         End Site
         {
          OFFSET 0.000000 -17.728500 0.000000
         }
        }
       }
      }
     }
    }
   }
  }
 }
 JOINT RightHip
 {
  OFFSET -7.771700 -0.012900 -0.001300
  CHANNELS 3 Yrotation Xrotation Zrotation
  JOINT RightKnee
  {
   OFFSET 0.000000 -40.869800 0.001200
   CHANNELS 3 Yrotation Xrotation Zrotation
   JOINT RightAnkle
   {
    OFFSET 0.000000 -39.717900 0.002100
    CHANNELS 3 Yrotation Xrotation Zrotation
    JOINT RightToe
    {
     OFFSET 0.000000 -4.965400 11.033500
     CHANNELS 3 Yrotation Xrotation Zrotation
     End Site
     {
      OFFSET 0.000000 -1.423100 5.872300
     }
    }
   }
  }
 }
 JOINT LeftHip
 {
  OFFSET 7.771700 -0.012900 -0.001300
  CHANNELS 3 Yrotation Xrotation Zrotation
  JOINT LeftKnee
  {
   OFFSET 0.000000 -40.869800 0.001200
   CHANNELS 3 Yrotation Xrotation Zrotation
   JOINT LeftAnkle
   {
    OFFSET 0.000000 -39.717900 0.002100
    CHANNELS 3 Yrotation Xrotation Zrotation
    JOINT LeftToe
    {
     OFFSET 0.000000 -4.965400 11.033500
     CHANNELS 3 Yrotation Xrotation Zrotation
     End Site
     {
      OFFSET 0.000000 -1.423100 5.872300
     }
    }
   }
  }
 }
}
MOTION
Frames: 16
Frame Time: 0.008333
0.000000 85.388000 0.000000 0.000000 -5.767877 0.000000 0.000000 11.653817 0.000000 0.000000 -5.885947 0.000000 0.000000 -0.000000 0.000000 0.000000 -0.000000 0.000000 0.000000 12.528835 0.000000 0.000000 0.711642 0.000000 0.000000 -0.000000 0.000000 0.000000 0.000000 -90.000000 0.000000 -2.309062 0.000000 0.000000 2.309062 0.000000 0.000000 -0.000000 0.000000 0.000000 -0.000000 90.000000 0.000000 -2.309062 0.000000 0.000000 2.309062 0.000000 0.000000 8.520406 0.000000 0.000000 1.905762 0.000000 -0.000000 -4.658285 0.000000 0.000000 -0.000000 0.000000 0.000000 8.520406 0.000000 0.000000 1.905762 0.000000 -0.000000 -4.658285 0.000000 0.000000 -0.000000 0.000000
-193.241500 57.990808 28.659273 172.212593 -49.817767 -3.412095 5.495225 22.087016 3.357033 2.857644 12.593999 1.669774 3.671840 15.847509 2.254278 2.844324 12.584113 1.658670 1.768068 14.711621 1.859413 2.647165 -8.350575 2.874591 1.247686 4.772119 0.963689 2.396870 -13.696066 -10.996821 -67.785151 -63.796270 108.705281 3.860193 14.789712 -14.899124 -10.099600 1.751842 -1.003287 1.549075 -10.564039 14.685058 56.222744 -55.191697 -102.185298 -1.937740 0.231833 -1.811048 4.167049 -22.699315 0.178974 -38.010899 73.372223 -39.455791 5.638308 -12.742861 9.374530 0.004014 -0.148704 -0.001492 -2.667485 -21.334514 11.593230 53.654838 79.434704 53.211210 4.544886 -16.031924 -16.496149 0.073560 0.136887 0.033080
-193.240228 57.991380 28.661697 172.212893 -49.849392 -3.423281 5.499597 22.030796 3.345212 2.857469 12.625501 1.680400 3.668446 15.840267 2.247980 2.842266 12.580014 1.657137 1.833237 14.894974 1.946565 2.719666 -8.075740 2.988372 1.259133 4.825469 0.982136 2.391296 -13.703064 -10.988546 -68.006053 -63.880309 108.836094 3.820906 14.813866 -14.832848 -10.086477 1.782093 -1.020928 1.539370 -10.568815 14.686410 56.149525 -55.166861 -102.112973 -1.906744 0.215227 -1.834371 4.161232 -22.668061 0.197055 -37.996976 73.360226 -39.440306 5.630868 -12.730653 9.369318 0.010144 -0.149054 0.002426 -2.671702 -21.301990 11.606773 53.644556 79.436197 53.198062 4.546780 -16.032493 -16.495177 0.076903 0.137068 0.032295
-193.241178 57.992454 28.663592 172.221624 -49.889810 -3.428671 5.497348 22.008202 3.331326 2.855777 12.632600 1.681001 3.654415 15.790835 2.223104 2.852641 12.617902 1.673897 1.896347 15.083977 2.038566 2.789345 -7.796373 3.107884 1.269092 4.878210 1.002140 2.386411 -13.708470 -10.981622 -68.148288 -63.938412 108.911562 3.817361 14.815117 -14.779944 -10.074449 1.819408 -1.028550 1.528489 -10.580591 14.679981 56.078721 -55.141254 -102.040150 -1.880200 0.203234 -1.855489 4.156542 -22.627398 0.200169 -37.993005 73.357949 -39.436843 5.627957 -12.727228 9.368686 0.004239 -0.151621 0.002578 -2.675045 -21.261519 11.607021 53.636093 79.439116 53.180322 4.555498 -16.033193 -16.488273 0.070599 0.139206 0.030576
-193.241503 57.993082 28.666297 172.238577 -49.929215 -3.446253 5.493084 21.995071 3.326162 2.853660 12.627560 1.677348 3.649267 15.769636 2.211516 2.853761 12.627576 1.677365 1.951341 15.247938 2.122990 2.862543 -7.492754 3.246322 1.273382 4.917828 1.010015 2.374395 -13.721255 -10.967298 -68.140492 -63.940154 108.890635 3.864642 14.791818 -14.756473 -10.060860 1.878569 -1.017479 1.506959 -10.647386 14.636214 55.961266 -55.088179 -101.912333 -1.894039 0.210257 -1.855553 4.142831 -22.586181 0.210192 -37.986709 73.349808 -39.429127 5.632033 -12.722674 9.362022 0.009501 -0.152150 0.006184 -2.688541 -21.221241 11.616721 53.634768 79.436937 53.165686 4.561175 -16.035224 -16.482762 0.063265 0.145700 0.030931
-193.242479 57.995949 28.667118 172.257118 -49.988286 -3.461113 5.486935 22.001285 3.317668 2.851762 12.622614 1.673070 3.652534 15.794450 2.222233 2.852837 12.625044 1.675406 1.993904 15.376725 2.192780 2.935456 -7.194325 3.392022 1.270481 4.918308 1.001319 2.352504 -13.729547 -10.947269 -68.120172 -63.946474 108.867865 3.914770 14.774189 -14.730234 -10.058817 1.866506 -1.037885 1.499949 -10.663519 14.627814 55.879334 -54.990772 -101.845758 -1.973342 0.244584 -1.827614 4.132362 -22.523765 0.215168 -37.994033 73.339725 -39.433868 5.647905 -12.716127 9.355146 0.014279 -0.159216 0.009620 -2.696487 -21.160431 11.621525 53.668099 79.427521 53.183741 4.549964 -16.036128 -16.469124 0.057914 0.142890 0.025883
-193.243741 57.998434 28.668292 172.272475 -50.046005 -3.473235 5.481721 22.004218 3.309404 2.851705 12.648093 1.679047 3.651136 15.791636 2.218818 2.836002 12.571609 1.644838 2.056867 15.550647 2.294426 3.008767 -6.902344 3.544315 1.282414 4.962173 1.017817 2.326071 -13.737060 -10.921626 -68.253514 -64.039202 108.918839 3.880258 14.796090 -14.631155 -10.050880 1.854118 -1.068458 1.507485 -10.620086 14.654071 55.777711 -54.974944 -101.742807 -1.942030 0.224186 -1.849554 4.122793 -22.463358 0.217365 -37.988804 73.335944 -39.428226 5.661430 -12.712821 9.351925 0.009444 -0.163000 0.010157 -2.695424 -21.100524 11.624367 53.657463 79.422780 53.170966 4.538171 -16.039545 -16.466036 0.066454 0.143221 0.028613
-193.245037 58.001100 28.669402 172.290597 -50.106003 -3.487922 5.475591 22.036218 3.309489 2.846507 12.598806 1.660045 3.639676 15.752896 2.194509 2.839980 12.595857 1.654364 2.119989 15.722026 2.399598 3.081360 -6.615327 3.703415 1.271586 4.959313 0.996812 2.275948 -13.750908 -10.854870 -68.195994 -64.083833 108.852460 3.873760 14.803354 -14.565255 -10.027600 1.891980 -1.064026 1.512634 -10.626734 14.641993 55.691679 -54.931229 -101.666464 -1.946314 0.224296 -1.863702 4.111998 -22.399246 0.220577 -37.981001 73.330693 -39.418971 5.670293 -12.709824 9.349752 0.012798 -0.165246 0.010295 -2.700208 -21.039491 11.624978 53.663842 79.417597 53.173203 4.540130 -16.037228 -16.465619 0.056402 0.143059 0.029804
-193.246072 58.000476 28.673544 172.300967 -50.141136 -3.501057 5.473718 21.995027 3.301834 2.841862 12.591957 1.653786 3.633568 15.744362 2.186464 2.841977 12.607180 1.657914 2.174539 15.876287 2.498966 3.149065 -6.329963 3.869553 1.267493 4.988924 0.999267 2.260423 -13.763816 -10.822715 -68.227114 -64.140376 108.854426 3.885949 14.805690 -14.511862 -10.004863 1.916776 -1.060844 1.509725 -10.636006 14.625158 55.607140 -54.891880 -101.589368 -1.955248 0.215016 -1.872199 4.105621 -22.362274 0.225436 -37.983809 73.322260 -39.417253 5.680059 -12.710242 9.348723 0.009310 -0.161282 0.008105 -2.698522 -21.006409 11.638995 53.634593 79.422102 53.144811 4.520963 -16.039941 -16.461567 0.066037 0.143667 0.034359
-193.248434 58.000394 28.677220 172.318643 -50.181164 -3.511973 5.465409 21.989122 3.293302 2.837631 12.570946 1.645077 3.636650 15.773416 2.196331 2.830021 12.565384 1.638659 2.225475 16.031703 2.600576 3.209649 -6.042399 4.041205 1.258731 5.024180 1.001741 2.254340 -13.783386 -10.792082 -68.268455 -64.203693 108.863950 3.903806 14.809319 -14.453965 -9.977460 1.948552 -1.054250 1.496067 -10.652346 14.605741 55.628523 -54.853732 -101.604961 -1.958946 0.263311 -1.870457 4.096539 -22.315761 0.220793 -37.960321 73.318423 -39.391685 5.679440 -12.718794 9.349974 0.003122 -0.151909 0.004993 -2.702312 -20.967753 11.641302 53.614977 79.421990 53.122255 4.510154 -16.038571 -16.460781 0.073195 0.142891 0.039080
-193.248863 58.006748 28.676318 172.347863 -50.270319 -3.540349 5.454601 22.001460 3.290194 2.834756 12.581055 1.645844 3.641727 15.800574 2.205423 2.817706 12.526526 1.622042 2.271859 16.188471 2.702275 3.262235 -5.752307 4.214634 1.241644 5.066983 1.002408 2.258502 -13.812318 -10.762863 -68.333231 -64.271810 108.891839 3.930647 14.816442 -14.388409 -9.953399 2.004914 -1.043399 1.488736 -10.679474 14.588432 55.634201 -54.845732 -101.593777 -1.961469 0.274539 -1.879915 4.079325 -22.219802 0.233009 -37.959662 73.308935 -39.387264 5.686136 -12.707667 9.347879 0.002065 -0.161598 0.004496 -2.713891 -20.875852 11.647016 53.594983 79.420862 53.100389 4.511150 -16.028887 -16.464461 0.071458 0.133685 0.041898
-193.250561 58.006390 28.681446 172.355522 -50.307571 -3.550785 5.450181 21.962673 3.279070 2.833797 12.591730 1.647015 3.635898 15.792910 2.200869 2.817478 12.525032 1.618196 2.313754 16.343035 2.801667 3.307594 -5.466239 4.385107 1.214581 5.118512 1.004762 2.285596 -13.823190 -10.737378 -68.493559 -64.353813 108.998054 3.966893 14.825809 -14.312917 -9.928932 2.058408 -1.030198 1.482916 -10.674109 14.584378 55.712637 -54.858946 -101.651656 -1.967225 0.289154 -1.897055 4.075126 -22.179364 0.238894 -37.946455 73.298957 -39.370733 5.686610 -12.706866 9.348360 -0.000018 -0.155049 0.002696 -2.716236 -20.839389 11.653692 53.578247 79.420741 53.081311 4.510487 -16.029593 -16.465271 0.068057 0.137779 0.044719
-193.252972 58.005812 28.687345 172.357440 -50.342121 -3.555123 5.450898 21.937854 3.268477 2.830256 12.588934 1.643215 3.635581 15.783452 2.200748 2.822810 12.558776 1.628631 2.336423 16.459294 2.879237 3.351724 -5.194941 4.546376 1.169461 5.148693 0.995696 2.292640 -13.892221 -10.718014 -68.567108 -64.413908 109.048881 4.009918 14.832202 -14.227872 -9.898177 2.058873 -1.020091 1.470440 -10.703903 14.557917 55.722257 -54.875542 -101.638736 -2.027220 0.248940 -1.943339 4.074390 -22.144738 0.244236 -37.917050 73.293981 -39.343170 5.680425 -12.702053 9.353958 -0.003433 -0.151257 -0.000732 -2.717712 -20.804616 11.662936 53.571391 79.415507 53.064623 4.500858 -16.030300 -16.461808 0.080274 0.139638 0.044540
-193.256581 58.008201 28.691339 172.385607 -50.396667 -3.573403 5.432609 21.939207 3.250991 2.826066 12.587359 1.639602 3.636017 15.773669 2.194330 2.830309 12.588646 1.643082 2.356755 16.570140 2.953096 3.397513 -4.945470 4.692760 1.151595 5.183362 1.001158 2.271068 -13.958300 -10.711307 -68.669068 -64.472344 109.139537 4.058440 14.836416 -14.132959 -9.822319 2.087639 -1.005178 1.438985 -10.786138 14.516578 55.695099 -54.899442 -101.609857 -2.058921 0.234176 -1.996811 4.065196 -22.081227 0.242891 -37.876227 73.285631 -39.298566 5.668775 -12.700175 9.358066 -0.005024 -0.146108 -0.002529 -2.737575 -20.747421 11.664996 53.581661 79.397699 53.054442 4.483108 -16.022486 -16.449048 0.074901 0.140611 0.041021
-193.256609 58.015498 28.692955 172.426874 -50.483987 -3.623722 5.418322 21.978226 3.261627 2.822241 12.586863 1.636860 3.612303 15.731058 2.165753 2.840972 12.619654 1.657268 2.402544 16.704186 3.035224 3.443520 -4.716280 4.823641 1.151340 5.246579 1.018092 2.257887 -14.001905 -10.705991 -68.843185 -64.531719 109.296575 4.113871 14.840688 -14.022423 -9.737079 2.171362 -0.986383 1.399332 -10.834179 14.502253 55.791478 -54.940671 -101.691095 -2.074166 0.235781 -2.059049 4.044812 -21.975276 0.267907 -37.823680 73.264365 -39.238167 5.678146 -12.701236 9.364188 -0.009887 -0.139208 -0.007274 -2.771536 -20.657401 11.687562 53.584572 79.395847 53.046832 4.474151 -16.012759 -16.447324 0.076705 0.131302 0.040540
-193.258113 58.017363 28.699830 172.445666 -50.525643 -3.654545 5.414489 21.979100 3.266950 2.822442 12.604183 1.644489 3.597939 15.703908 2.146144 2.840445 12.620185 1.657664 2.443491 16.832881 3.109527 3.491494 -4.499932 4.941453 1.076243 5.368292 1.005943 2.301974 -14.098794 -10.682493 -69.047144 -64.585169 109.486946 4.178093 14.841645 -13.896298 -9.672350 2.258800 -0.972436 1.390849 -10.903800 14.475711 55.851417 -54.987299 -101.753827 -2.089980 0.230756 -2.136761 4.036470 -21.926608 0.288684 -37.785764 73.247664 -39.197289 5.682604 -12.695692 9.369142 -0.016182 -0.134815 -0.007486 -2.804411 -20.616174 11.710818 53.610643 79.397336 53.055247 4.479609 -16.009941 -16.453623 0.072890 0.131722 0.045649
